<svg xmlns="http://www.w3.org/2000/svg" viewBox="0 0 540 160" width="540" height="160">
  <defs>
    <linearGradient id="pg" x1="0" y1="0" x2="0" y2="1">
      <stop offset="0" stop-color="#A98BFF"/><stop offset="1" stop-color="#8B6DFF"/>
    </linearGradient>
  </defs>
  <rect width="540" height="160" rx="28" fill="#14121E"/>
  <rect x="1" y="1" width="538" height="158" rx="27" fill="none" stroke="#241F38" stroke-width="1.5"/>
  <g transform="translate(20,20) scale(0.5)">
    <rect width="240" height="240" rx="54" ry="54" fill="#0B0A12"/>
    <rect x="0.75" y="0.75" width="238.5" height="238.5" rx="53.25" ry="53.25" fill="none" stroke="#2C2746" stroke-width="1.5"/>
    <g transform="translate(-13.333,-34.667) scale(2.6667)">
      <path d="M 38 41 L 62 41 L 72 53 L 50 85 L 28 53 Z" fill="url(#pg)"/>
      <g stroke="#E2B45C" stroke-width="1.5" fill="none" opacity="0.9" stroke-linecap="round">
        <line x1="28" y1="53" x2="72" y2="53"/><line x1="38" y1="41" x2="28" y2="53"/>
        <line x1="62" y1="41" x2="72" y2="53"/><line x1="38" y1="41" x2="50" y2="53"/>
        <line x1="62" y1="41" x2="50" y2="53"/><line x1="50" y1="53" x2="50" y2="85"/>
      </g>
      <path d="M 42.0 41 L 44.6 41 L 43.3 34.0 Z" fill="#E2B45C"/>
      <path d="M 48.7 41 L 51.3 41 L 50.0 31.0 Z" fill="#E2B45C"/>
      <path d="M 55.4 41 L 58.0 41 L 56.7 34.0 Z" fill="#E2B45C"/>
    </g>
  </g>
  <text x="170" y="103" font-family="Marcellus, Georgia, 'Times New Roman', serif" font-size="74" letter-spacing="2" fill="#ECEAF5">Maeve</text>
</svg>
