<svg xmlns="http://www.w3.org/2000/svg" viewBox="0 0 900 320" width="900" height="320"><defs>
<linearGradient id="pg" x1="0" y1="0" x2="0" y2="1"><stop offset="0" stop-color="#A98BFF"/><stop offset="1" stop-color="#8B6DFF"/></linearGradient>
<linearGradient id="gg" x1="0" y1="0" x2="0" y2="1"><stop offset="0" stop-color="#EBC77C"/><stop offset="1" stop-color="#CFA049"/></linearGradient>
</defs>
<rect width="900" height="320" fill="#070610"/>
<g transform="translate(40,40)"><rect width="240" height="240" rx="54.0" ry="54.0" fill="#0B0A12"/><rect x="0.75" y="0.75" width="238.5" height="238.5" rx="53.25" ry="53.25" fill="none" stroke="#241F38" stroke-width="1.5"/><g transform="translate(17.143,20.229) scale(2.0571)"><path d="M 20 80 L 80 80 L 78 66 L 70 30 L 60 50 L 50 22 L 40 50 L 30 30 L 22 66 Z" fill="url(#pg)"/><circle cx="30" cy="30" r="5" fill="#E2B45C"/><circle cx="50" cy="22" r="5" fill="#E2B45C"/><circle cx="70" cy="30" r="5" fill="#E2B45C"/><path d="M 50 65.3 L 56.2 72.5 L 50 79.7 L 43.8 72.5 Z" fill="#E2B45C"/></g></g>
<g transform="translate(320,40)"><rect width="240" height="240" rx="54.0" ry="54.0" fill="#F4F2F8"/><rect x="0.75" y="0.75" width="238.5" height="238.5" rx="53.25" ry="53.25" fill="none" stroke="#E2DEEC" stroke-width="1.5"/><g transform="translate(17.143,20.229) scale(2.0571)"><path d="M 20 80 L 80 80 L 78 66 L 70 30 L 60 50 L 50 22 L 40 50 L 30 30 L 22 66 Z" fill="url(#pg)"/><circle cx="30" cy="30" r="5" fill="#E2B45C"/><circle cx="50" cy="22" r="5" fill="#E2B45C"/><circle cx="70" cy="30" r="5" fill="#E2B45C"/><path d="M 50 65.3 L 56.2 72.5 L 50 79.7 L 43.8 72.5 Z" fill="#E2B45C"/></g></g>
<g transform="translate(620,52) scale(0.2667)"><rect width="240" height="240" rx="54.0" ry="54.0" fill="#0B0A12"/><rect x="0.75" y="0.75" width="238.5" height="238.5" rx="53.25" ry="53.25" fill="none" stroke="#241F38" stroke-width="1.5"/><g transform="translate(17.143,20.229) scale(2.0571)"><path d="M 20 80 L 80 80 L 78 66 L 70 30 L 60 50 L 50 22 L 40 50 L 30 30 L 22 66 Z" fill="url(#pg)"/><circle cx="30" cy="30" r="5" fill="#E2B45C"/><circle cx="50" cy="22" r="5" fill="#E2B45C"/><circle cx="70" cy="30" r="5" fill="#E2B45C"/><path d="M 50 65.3 L 56.2 72.5 L 50 79.7 L 43.8 72.5 Z" fill="#E2B45C"/></g></g>
<g transform="translate(700,52) scale(0.1333)"><rect width="240" height="240" rx="54.0" ry="54.0" fill="#0B0A12"/><rect x="0.75" y="0.75" width="238.5" height="238.5" rx="53.25" ry="53.25" fill="none" stroke="#241F38" stroke-width="1.5"/><g transform="translate(17.143,20.229) scale(2.0571)"><path d="M 20 80 L 80 80 L 78 66 L 70 30 L 60 50 L 50 22 L 40 50 L 30 30 L 22 66 Z" fill="url(#pg)"/><circle cx="30" cy="30" r="5" fill="#E2B45C"/><circle cx="50" cy="22" r="5" fill="#E2B45C"/><circle cx="70" cy="30" r="5" fill="#E2B45C"/><path d="M 50 65.3 L 56.2 72.5 L 50 79.7 L 43.8 72.5 Z" fill="#E2B45C"/></g></g>
<g transform="translate(760,52) scale(0.0667)"><rect width="240" height="240" rx="54.0" ry="54.0" fill="#0B0A12"/><rect x="0.75" y="0.75" width="238.5" height="238.5" rx="53.25" ry="53.25" fill="none" stroke="#241F38" stroke-width="1.5"/><g transform="translate(17.143,20.229) scale(2.0571)"><path d="M 20 80 L 80 80 L 78 66 L 70 30 L 60 50 L 50 22 L 40 50 L 30 30 L 22 66 Z" fill="url(#pg)"/><circle cx="30" cy="30" r="5" fill="#E2B45C"/><circle cx="50" cy="22" r="5" fill="#E2B45C"/><circle cx="70" cy="30" r="5" fill="#E2B45C"/><path d="M 50 65.3 L 56.2 72.5 L 50 79.7 L 43.8 72.5 Z" fill="#E2B45C"/></g></g>
<text x="620" y="48" fill="#6E6A86" font-family="Geist,Inter,sans-serif" font-size="11">64</text>
<text x="700" y="48" fill="#6E6A86" font-family="Geist,Inter,sans-serif" font-size="11">32</text>
<text x="760" y="48" fill="#6E6A86" font-family="Geist,Inter,sans-serif" font-size="11">16</text>
<text x="620" y="200" fill="#9A95B4" font-family="Geist,Inter,sans-serif" font-size="15" font-weight="600">Crown &amp; Stone</text>
<text x="40" y="300" fill="#46425C" font-family="Geist,Inter,sans-serif" font-size="12">on #0B0A12 / on light  ·  reduction proofs 64·32·16</text>
</svg>