<svg xmlns="http://www.w3.org/2000/svg" viewBox="0 0 900 320" width="900" height="320"><defs>
<linearGradient id="pg" x1="0" y1="0" x2="0" y2="1"><stop offset="0" stop-color="#A98BFF"/><stop offset="1" stop-color="#8B6DFF"/></linearGradient>
<linearGradient id="gg" x1="0" y1="0" x2="0" y2="1"><stop offset="0" stop-color="#EBC77C"/><stop offset="1" stop-color="#CFA049"/></linearGradient>
</defs>
<rect width="900" height="320" fill="#070610"/>
<g transform="translate(40,40)"><rect width="240" height="240" rx="54.0" ry="54.0" fill="#0B0A12"/><rect x="0.75" y="0.75" width="238.5" height="238.5" rx="53.25" ry="53.25" fill="none" stroke="#241F38" stroke-width="1.5"/><g transform="translate(-13.333,-34.667) scale(2.6667)"><path d="M 38 41 L 62 41 L 72 53 L 50 85 L 28 53 Z" fill="url(#pg)"/><g stroke="#E2B45C" stroke-width="1.5" fill="none" opacity="0.9" stroke-linecap="round"><line x1="28" y1="53" x2="72" y2="53"/><line x1="38" y1="41" x2="28" y2="53"/><line x1="62" y1="41" x2="72" y2="53"/><line x1="38" y1="41" x2="50" y2="53"/><line x1="62" y1="41" x2="50" y2="53"/><line x1="50" y1="53" x2="50" y2="85"/></g><path d="M 42.0 41 L 44.6 41 L 43.3 34.0 Z" fill="#E2B45C"/><path d="M 48.7 41 L 51.300000000000004 41 L 50.0 31.0 Z" fill="#E2B45C"/><path d="M 55.4 41 L 58.0 41 L 56.699999999999996 34.0 Z" fill="#E2B45C"/></g></g>
<g transform="translate(320,40)"><rect width="240" height="240" rx="54.0" ry="54.0" fill="#F4F2F8"/><rect x="0.75" y="0.75" width="238.5" height="238.5" rx="53.25" ry="53.25" fill="none" stroke="#E2DEEC" stroke-width="1.5"/><g transform="translate(-13.333,-34.667) scale(2.6667)"><path d="M 38 41 L 62 41 L 72 53 L 50 85 L 28 53 Z" fill="url(#pg)"/><g stroke="#E2B45C" stroke-width="1.5" fill="none" opacity="0.9" stroke-linecap="round"><line x1="28" y1="53" x2="72" y2="53"/><line x1="38" y1="41" x2="28" y2="53"/><line x1="62" y1="41" x2="72" y2="53"/><line x1="38" y1="41" x2="50" y2="53"/><line x1="62" y1="41" x2="50" y2="53"/><line x1="50" y1="53" x2="50" y2="85"/></g><path d="M 42.0 41 L 44.6 41 L 43.3 34.0 Z" fill="#E2B45C"/><path d="M 48.7 41 L 51.300000000000004 41 L 50.0 31.0 Z" fill="#E2B45C"/><path d="M 55.4 41 L 58.0 41 L 56.699999999999996 34.0 Z" fill="#E2B45C"/></g></g>
<g transform="translate(620,52) scale(0.2667)"><rect width="240" height="240" rx="54.0" ry="54.0" fill="#0B0A12"/><rect x="0.75" y="0.75" width="238.5" height="238.5" rx="53.25" ry="53.25" fill="none" stroke="#241F38" stroke-width="1.5"/><g transform="translate(-13.333,-34.667) scale(2.6667)"><path d="M 38 41 L 62 41 L 72 53 L 50 85 L 28 53 Z" fill="url(#pg)"/><g stroke="#E2B45C" stroke-width="1.5" fill="none" opacity="0.9" stroke-linecap="round"><line x1="28" y1="53" x2="72" y2="53"/><line x1="38" y1="41" x2="28" y2="53"/><line x1="62" y1="41" x2="72" y2="53"/><line x1="38" y1="41" x2="50" y2="53"/><line x1="62" y1="41" x2="50" y2="53"/><line x1="50" y1="53" x2="50" y2="85"/></g><path d="M 42.0 41 L 44.6 41 L 43.3 34.0 Z" fill="#E2B45C"/><path d="M 48.7 41 L 51.300000000000004 41 L 50.0 31.0 Z" fill="#E2B45C"/><path d="M 55.4 41 L 58.0 41 L 56.699999999999996 34.0 Z" fill="#E2B45C"/></g></g>
<g transform="translate(700,52) scale(0.1333)"><rect width="240" height="240" rx="54.0" ry="54.0" fill="#0B0A12"/><rect x="0.75" y="0.75" width="238.5" height="238.5" rx="53.25" ry="53.25" fill="none" stroke="#241F38" stroke-width="1.5"/><g transform="translate(-13.333,-34.667) scale(2.6667)"><path d="M 38 41 L 62 41 L 72 53 L 50 85 L 28 53 Z" fill="url(#pg)"/><g stroke="#E2B45C" stroke-width="1.5" fill="none" opacity="0.9" stroke-linecap="round"><line x1="28" y1="53" x2="72" y2="53"/><line x1="38" y1="41" x2="28" y2="53"/><line x1="62" y1="41" x2="72" y2="53"/><line x1="38" y1="41" x2="50" y2="53"/><line x1="62" y1="41" x2="50" y2="53"/><line x1="50" y1="53" x2="50" y2="85"/></g><path d="M 42.0 41 L 44.6 41 L 43.3 34.0 Z" fill="#E2B45C"/><path d="M 48.7 41 L 51.300000000000004 41 L 50.0 31.0 Z" fill="#E2B45C"/><path d="M 55.4 41 L 58.0 41 L 56.699999999999996 34.0 Z" fill="#E2B45C"/></g></g>
<g transform="translate(760,52) scale(0.0667)"><rect width="240" height="240" rx="54.0" ry="54.0" fill="#0B0A12"/><rect x="0.75" y="0.75" width="238.5" height="238.5" rx="53.25" ry="53.25" fill="none" stroke="#241F38" stroke-width="1.5"/><g transform="translate(-13.333,-34.667) scale(2.6667)"><path d="M 38 41 L 62 41 L 72 53 L 50 85 L 28 53 Z" fill="url(#pg)"/><g stroke="#E2B45C" stroke-width="1.5" fill="none" opacity="0.9" stroke-linecap="round"><line x1="28" y1="53" x2="72" y2="53"/><line x1="38" y1="41" x2="28" y2="53"/><line x1="62" y1="41" x2="72" y2="53"/><line x1="38" y1="41" x2="50" y2="53"/><line x1="62" y1="41" x2="50" y2="53"/><line x1="50" y1="53" x2="50" y2="85"/></g><path d="M 42.0 41 L 44.6 41 L 43.3 34.0 Z" fill="#E2B45C"/><path d="M 48.7 41 L 51.300000000000004 41 L 50.0 31.0 Z" fill="#E2B45C"/><path d="M 55.4 41 L 58.0 41 L 56.699999999999996 34.0 Z" fill="#E2B45C"/></g></g>
<text x="620" y="48" fill="#6E6A86" font-family="Geist,Inter,sans-serif" font-size="11">64</text>
<text x="700" y="48" fill="#6E6A86" font-family="Geist,Inter,sans-serif" font-size="11">32</text>
<text x="760" y="48" fill="#6E6A86" font-family="Geist,Inter,sans-serif" font-size="11">16</text>
<text x="620" y="200" fill="#9A95B4" font-family="Geist,Inter,sans-serif" font-size="15" font-weight="600">Sovereign Stone</text>
<text x="40" y="300" fill="#46425C" font-family="Geist,Inter,sans-serif" font-size="12">on #0B0A12 / on light  ·  reduction proofs 64·32·16</text>
</svg>