<svg xmlns="http://www.w3.org/2000/svg" viewBox="0 0 900 320" width="900" height="320"><defs>
<linearGradient id="pg" x1="0" y1="0" x2="0" y2="1"><stop offset="0" stop-color="#A98BFF"/><stop offset="1" stop-color="#8B6DFF"/></linearGradient>
<linearGradient id="gg" x1="0" y1="0" x2="0" y2="1"><stop offset="0" stop-color="#EBC77C"/><stop offset="1" stop-color="#CFA049"/></linearGradient>
</defs>
<rect width="900" height="320" fill="#070610"/>
<g transform="translate(40,40)"><rect width="240" height="240" rx="54.0" ry="54.0" fill="#0B0A12"/><rect x="0.75" y="0.75" width="238.5" height="238.5" rx="53.25" ry="53.25" fill="none" stroke="#241F38" stroke-width="1.5"/><g transform="translate(40.415,190.707) scale(1.5713)"><path d="M3.515625 -0.1953125Q4.052734375 -0.9765625 4.736328125 -2.5146484375Q5.419921875 -4.052734375 5.810546875 -6.396484375Q6.34765625 -9.814453125 7.0068359375 -14.0869140625Q7.666015625 -18.359375 8.3740234375 -23.046875Q9.08203125 -27.734375 9.7900390625 -32.6416015625Q10.498046875 -37.548828125 11.1572265625 -42.3095703125Q11.81640625 -47.0703125 12.4267578125 -51.4892578125Q13.037109375 -55.908203125 13.525390625 -59.5703125Q14.013671875 -63.232421875 14.3310546875 -65.9423828125Q14.6484375 -68.65234375 14.794921875 -70.01953125H20.99609375L51.708984375 -12.59765625L82.177734375 -70.01953125H86.81640625L94.82421875 -12.01171875Q95.166015625 -9.27734375 95.556640625 -7.32421875Q95.947265625 -5.37109375 96.337890625 -3.9794921875Q96.728515625 -2.587890625 97.0947265625 -1.6845703125Q97.4609375 -0.78125 97.802734375 -0.1953125V0.0H85.498046875V-0.1953125Q85.7421875 -0.732421875 85.9619140625 -1.953125Q86.181640625 -3.173828125 86.181640625 -4.8828125Q86.181640625 -5.517578125 86.1328125 -6.1767578125Q86.083984375 -6.8359375 85.986328125 -7.6171875L79.78515625 -54.39453125L50.9765625 -0.1953125L47.607421875 -0.5859375L18.603515625 -54.8828125Q16.89453125 -43.310546875 15.625 -33.49609375Q15.087890625 -29.296875 14.55078125 -25.1220703125Q14.013671875 -20.947265625 13.5986328125 -17.333984375Q13.18359375 -13.720703125 12.939453125 -10.9619140625Q12.6953125 -8.203125 12.6953125 -6.884765625Q12.6953125 -5.224609375 12.79296875 -3.955078125Q12.890625 -2.685546875 12.98828125 -1.806640625Q13.134765625 -0.78125 13.28125 0.0H3.515625Z" fill="url(#pg)"/><path d="M 17.5 -80.9 L 22.1 -74.5 L 17.5 -68.1 L 12.9 -74.5 Z" fill="#E2B45C"/><path d="M 84.5 -80.9 L 89.1 -74.5 L 84.5 -68.1 L 79.9 -74.5 Z" fill="#E2B45C"/><path d="M 50 -90.5 L 56.0 -81.5 L 50 -72.5 L 44.0 -81.5 Z" fill="#E2B45C"/></g></g>
<g transform="translate(320,40)"><rect width="240" height="240" rx="54.0" ry="54.0" fill="#F4F2F8"/><rect x="0.75" y="0.75" width="238.5" height="238.5" rx="53.25" ry="53.25" fill="none" stroke="#E2DEEC" stroke-width="1.5"/><g transform="translate(40.415,190.707) scale(1.5713)"><path d="M3.515625 -0.1953125Q4.052734375 -0.9765625 4.736328125 -2.5146484375Q5.419921875 -4.052734375 5.810546875 -6.396484375Q6.34765625 -9.814453125 7.0068359375 -14.0869140625Q7.666015625 -18.359375 8.3740234375 -23.046875Q9.08203125 -27.734375 9.7900390625 -32.6416015625Q10.498046875 -37.548828125 11.1572265625 -42.3095703125Q11.81640625 -47.0703125 12.4267578125 -51.4892578125Q13.037109375 -55.908203125 13.525390625 -59.5703125Q14.013671875 -63.232421875 14.3310546875 -65.9423828125Q14.6484375 -68.65234375 14.794921875 -70.01953125H20.99609375L51.708984375 -12.59765625L82.177734375 -70.01953125H86.81640625L94.82421875 -12.01171875Q95.166015625 -9.27734375 95.556640625 -7.32421875Q95.947265625 -5.37109375 96.337890625 -3.9794921875Q96.728515625 -2.587890625 97.0947265625 -1.6845703125Q97.4609375 -0.78125 97.802734375 -0.1953125V0.0H85.498046875V-0.1953125Q85.7421875 -0.732421875 85.9619140625 -1.953125Q86.181640625 -3.173828125 86.181640625 -4.8828125Q86.181640625 -5.517578125 86.1328125 -6.1767578125Q86.083984375 -6.8359375 85.986328125 -7.6171875L79.78515625 -54.39453125L50.9765625 -0.1953125L47.607421875 -0.5859375L18.603515625 -54.8828125Q16.89453125 -43.310546875 15.625 -33.49609375Q15.087890625 -29.296875 14.55078125 -25.1220703125Q14.013671875 -20.947265625 13.5986328125 -17.333984375Q13.18359375 -13.720703125 12.939453125 -10.9619140625Q12.6953125 -8.203125 12.6953125 -6.884765625Q12.6953125 -5.224609375 12.79296875 -3.955078125Q12.890625 -2.685546875 12.98828125 -1.806640625Q13.134765625 -0.78125 13.28125 0.0H3.515625Z" fill="url(#pg)"/><path d="M 17.5 -80.9 L 22.1 -74.5 L 17.5 -68.1 L 12.9 -74.5 Z" fill="#E2B45C"/><path d="M 84.5 -80.9 L 89.1 -74.5 L 84.5 -68.1 L 79.9 -74.5 Z" fill="#E2B45C"/><path d="M 50 -90.5 L 56.0 -81.5 L 50 -72.5 L 44.0 -81.5 Z" fill="#E2B45C"/></g></g>
<g transform="translate(620,52) scale(0.2667)"><rect width="240" height="240" rx="54.0" ry="54.0" fill="#0B0A12"/><rect x="0.75" y="0.75" width="238.5" height="238.5" rx="53.25" ry="53.25" fill="none" stroke="#241F38" stroke-width="1.5"/><g transform="translate(40.415,190.707) scale(1.5713)"><path d="M3.515625 -0.1953125Q4.052734375 -0.9765625 4.736328125 -2.5146484375Q5.419921875 -4.052734375 5.810546875 -6.396484375Q6.34765625 -9.814453125 7.0068359375 -14.0869140625Q7.666015625 -18.359375 8.3740234375 -23.046875Q9.08203125 -27.734375 9.7900390625 -32.6416015625Q10.498046875 -37.548828125 11.1572265625 -42.3095703125Q11.81640625 -47.0703125 12.4267578125 -51.4892578125Q13.037109375 -55.908203125 13.525390625 -59.5703125Q14.013671875 -63.232421875 14.3310546875 -65.9423828125Q14.6484375 -68.65234375 14.794921875 -70.01953125H20.99609375L51.708984375 -12.59765625L82.177734375 -70.01953125H86.81640625L94.82421875 -12.01171875Q95.166015625 -9.27734375 95.556640625 -7.32421875Q95.947265625 -5.37109375 96.337890625 -3.9794921875Q96.728515625 -2.587890625 97.0947265625 -1.6845703125Q97.4609375 -0.78125 97.802734375 -0.1953125V0.0H85.498046875V-0.1953125Q85.7421875 -0.732421875 85.9619140625 -1.953125Q86.181640625 -3.173828125 86.181640625 -4.8828125Q86.181640625 -5.517578125 86.1328125 -6.1767578125Q86.083984375 -6.8359375 85.986328125 -7.6171875L79.78515625 -54.39453125L50.9765625 -0.1953125L47.607421875 -0.5859375L18.603515625 -54.8828125Q16.89453125 -43.310546875 15.625 -33.49609375Q15.087890625 -29.296875 14.55078125 -25.1220703125Q14.013671875 -20.947265625 13.5986328125 -17.333984375Q13.18359375 -13.720703125 12.939453125 -10.9619140625Q12.6953125 -8.203125 12.6953125 -6.884765625Q12.6953125 -5.224609375 12.79296875 -3.955078125Q12.890625 -2.685546875 12.98828125 -1.806640625Q13.134765625 -0.78125 13.28125 0.0H3.515625Z" fill="url(#pg)"/><path d="M 17.5 -80.9 L 22.1 -74.5 L 17.5 -68.1 L 12.9 -74.5 Z" fill="#E2B45C"/><path d="M 84.5 -80.9 L 89.1 -74.5 L 84.5 -68.1 L 79.9 -74.5 Z" fill="#E2B45C"/><path d="M 50 -90.5 L 56.0 -81.5 L 50 -72.5 L 44.0 -81.5 Z" fill="#E2B45C"/></g></g>
<g transform="translate(700,52) scale(0.1333)"><rect width="240" height="240" rx="54.0" ry="54.0" fill="#0B0A12"/><rect x="0.75" y="0.75" width="238.5" height="238.5" rx="53.25" ry="53.25" fill="none" stroke="#241F38" stroke-width="1.5"/><g transform="translate(40.415,190.707) scale(1.5713)"><path d="M3.515625 -0.1953125Q4.052734375 -0.9765625 4.736328125 -2.5146484375Q5.419921875 -4.052734375 5.810546875 -6.396484375Q6.34765625 -9.814453125 7.0068359375 -14.0869140625Q7.666015625 -18.359375 8.3740234375 -23.046875Q9.08203125 -27.734375 9.7900390625 -32.6416015625Q10.498046875 -37.548828125 11.1572265625 -42.3095703125Q11.81640625 -47.0703125 12.4267578125 -51.4892578125Q13.037109375 -55.908203125 13.525390625 -59.5703125Q14.013671875 -63.232421875 14.3310546875 -65.9423828125Q14.6484375 -68.65234375 14.794921875 -70.01953125H20.99609375L51.708984375 -12.59765625L82.177734375 -70.01953125H86.81640625L94.82421875 -12.01171875Q95.166015625 -9.27734375 95.556640625 -7.32421875Q95.947265625 -5.37109375 96.337890625 -3.9794921875Q96.728515625 -2.587890625 97.0947265625 -1.6845703125Q97.4609375 -0.78125 97.802734375 -0.1953125V0.0H85.498046875V-0.1953125Q85.7421875 -0.732421875 85.9619140625 -1.953125Q86.181640625 -3.173828125 86.181640625 -4.8828125Q86.181640625 -5.517578125 86.1328125 -6.1767578125Q86.083984375 -6.8359375 85.986328125 -7.6171875L79.78515625 -54.39453125L50.9765625 -0.1953125L47.607421875 -0.5859375L18.603515625 -54.8828125Q16.89453125 -43.310546875 15.625 -33.49609375Q15.087890625 -29.296875 14.55078125 -25.1220703125Q14.013671875 -20.947265625 13.5986328125 -17.333984375Q13.18359375 -13.720703125 12.939453125 -10.9619140625Q12.6953125 -8.203125 12.6953125 -6.884765625Q12.6953125 -5.224609375 12.79296875 -3.955078125Q12.890625 -2.685546875 12.98828125 -1.806640625Q13.134765625 -0.78125 13.28125 0.0H3.515625Z" fill="url(#pg)"/><path d="M 17.5 -80.9 L 22.1 -74.5 L 17.5 -68.1 L 12.9 -74.5 Z" fill="#E2B45C"/><path d="M 84.5 -80.9 L 89.1 -74.5 L 84.5 -68.1 L 79.9 -74.5 Z" fill="#E2B45C"/><path d="M 50 -90.5 L 56.0 -81.5 L 50 -72.5 L 44.0 -81.5 Z" fill="#E2B45C"/></g></g>
<g transform="translate(760,52) scale(0.0667)"><rect width="240" height="240" rx="54.0" ry="54.0" fill="#0B0A12"/><rect x="0.75" y="0.75" width="238.5" height="238.5" rx="53.25" ry="53.25" fill="none" stroke="#241F38" stroke-width="1.5"/><g transform="translate(40.415,190.707) scale(1.5713)"><path d="M3.515625 -0.1953125Q4.052734375 -0.9765625 4.736328125 -2.5146484375Q5.419921875 -4.052734375 5.810546875 -6.396484375Q6.34765625 -9.814453125 7.0068359375 -14.0869140625Q7.666015625 -18.359375 8.3740234375 -23.046875Q9.08203125 -27.734375 9.7900390625 -32.6416015625Q10.498046875 -37.548828125 11.1572265625 -42.3095703125Q11.81640625 -47.0703125 12.4267578125 -51.4892578125Q13.037109375 -55.908203125 13.525390625 -59.5703125Q14.013671875 -63.232421875 14.3310546875 -65.9423828125Q14.6484375 -68.65234375 14.794921875 -70.01953125H20.99609375L51.708984375 -12.59765625L82.177734375 -70.01953125H86.81640625L94.82421875 -12.01171875Q95.166015625 -9.27734375 95.556640625 -7.32421875Q95.947265625 -5.37109375 96.337890625 -3.9794921875Q96.728515625 -2.587890625 97.0947265625 -1.6845703125Q97.4609375 -0.78125 97.802734375 -0.1953125V0.0H85.498046875V-0.1953125Q85.7421875 -0.732421875 85.9619140625 -1.953125Q86.181640625 -3.173828125 86.181640625 -4.8828125Q86.181640625 -5.517578125 86.1328125 -6.1767578125Q86.083984375 -6.8359375 85.986328125 -7.6171875L79.78515625 -54.39453125L50.9765625 -0.1953125L47.607421875 -0.5859375L18.603515625 -54.8828125Q16.89453125 -43.310546875 15.625 -33.49609375Q15.087890625 -29.296875 14.55078125 -25.1220703125Q14.013671875 -20.947265625 13.5986328125 -17.333984375Q13.18359375 -13.720703125 12.939453125 -10.9619140625Q12.6953125 -8.203125 12.6953125 -6.884765625Q12.6953125 -5.224609375 12.79296875 -3.955078125Q12.890625 -2.685546875 12.98828125 -1.806640625Q13.134765625 -0.78125 13.28125 0.0H3.515625Z" fill="url(#pg)"/><path d="M 17.5 -80.9 L 22.1 -74.5 L 17.5 -68.1 L 12.9 -74.5 Z" fill="#E2B45C"/><path d="M 84.5 -80.9 L 89.1 -74.5 L 84.5 -68.1 L 79.9 -74.5 Z" fill="#E2B45C"/><path d="M 50 -90.5 L 56.0 -81.5 L 50 -72.5 L 44.0 -81.5 Z" fill="#E2B45C"/></g></g>
<text x="620" y="48" fill="#6E6A86" font-family="Geist,Inter,sans-serif" font-size="11">64</text>
<text x="700" y="48" fill="#6E6A86" font-family="Geist,Inter,sans-serif" font-size="11">32</text>
<text x="760" y="48" fill="#6E6A86" font-family="Geist,Inter,sans-serif" font-size="11">16</text>
<text x="620" y="200" fill="#9A95B4" font-family="Geist,Inter,sans-serif" font-size="15" font-weight="600">Crowned Cipher</text>
<text x="40" y="300" fill="#46425C" font-family="Geist,Inter,sans-serif" font-size="12">on #0B0A12 / on light  ·  reduction proofs 64·32·16</text>
</svg>